<svg width="530" height="940" viewBox="0 0 530 940" fill="none" xmlns="http://www.w3.org/2000/svg">
<path opacity="0.2" d="M119.788 29.7796C138.958 29.7796 156.011 30.4858 171.829 31.9572C238.217 38.1367 295.786 51.9083 347.827 73.684C375.523 85.3368 399.691 98.873 421.683 114.999C443.147 130.771 461.258 149.957 475.43 171.91C492.365 198.217 500.597 227.643 500.539 262.072C500.362 297.561 490.542 331.637 470.431 366.242C454.143 394.315 433.032 420.21 405.748 445.341C375.229 473.59 339.947 499.544 298.02 524.733C260.445 547.392 220.518 566.872 176.004 584.469L174.416 585.175C173.593 585.528 172.711 585.882 171.887 586.117C166.301 587.706 159.245 592.061 157.069 603.655C156.834 605.009 156.716 606.362 156.54 608.01C154.952 628.609 153.423 652.621 154.835 676.456C155.246 683.166 155.54 689.875 155.658 696.584C155.893 704.294 156.246 712.003 156.775 719.654C157.716 733.544 158.892 747.198 160.774 758.615C162.185 767.208 164.361 777.448 168.3 789.16C173.652 804.873 178.65 820.234 181.002 836.242C182.119 843.599 183.354 852.25 183.824 860.666C184.412 871.672 183.178 878.734 178.532 886.797C176.709 889.975 170.241 896.508 164.008 899.98C150.483 907.513 136.547 909.808 123.14 910.75C122.081 910.809 121.023 910.868 120.023 910.868C110.909 910.868 103.264 907.454 97.0309 900.745C94.1496 897.685 91.3271 893.859 87.8577 888.504C80.0368 875.85 74.0977 861.196 69.0994 842.186C62.9839 818.88 58.5737 793.162 55.6923 763.441C52.8698 735.192 51.4585 704.294 50.5764 665.922C50.5176 663.803 50.5764 661.684 50.5764 659.33C50.6352 657.035 50.7528 654.857 50.7528 652.444C50.694 649.031 50.5176 645.146 49.2827 641.439C47.6951 636.024 44.1669 628.727 32.4062 628.727L5.94479 630.433C-13.0486 631.61 -31.5128 632.787 -49.977 633.729C-70.8522 634.729 -91.6685 635.495 -112.544 636.26L-131.361 636.966C-132.478 636.966 -133.654 636.966 -134.771 636.966C-137.888 636.966 -141.004 636.907 -144.062 636.789H-148.237C-150.766 636.613 -152.883 635.789 -155.117 633.906C-165.29 625.49 -171.464 614.837 -173.934 601.301C-175.522 592.238 -176.051 583.469 -175.463 574.582C-174.875 566.107 -171.347 557.573 -163.644 548.922C-161.644 546.685 -159.175 545.155 -156.881 544.626C-151.06 543.331 -146.885 542.566 -140.064 541.859L-116.483 539.682C-99.1953 538.093 -81.9072 536.386 -64.619 534.738C-44.3319 532.796 -24.1624 530.854 -3.81653 528.794C1.94618 528.206 7.70888 527.499 13.4716 526.852C17.823 526.322 22.1157 525.851 26.5259 525.322C33.8175 524.557 39.933 521.614 45.5193 518.554C51.8113 514.964 55.5159 509.137 56.0451 501.898L56.7508 492.894C57.1036 488.715 57.4564 484.654 57.6916 480.594C59.4557 452.226 62.4547 421.211 66.9237 382.956C68.2174 372.01 70.0403 360.71 71.8632 349.881L73.3921 340.288C76.097 323.927 78.8019 307.566 81.6833 291.146C83.7414 279.375 85.9171 270.371 88.7397 262.19C89.0925 261.366 89.4453 260.424 89.7393 259.542C90.151 258.423 90.5626 257.423 90.9154 256.305C91.7387 253.833 92.7971 251.538 94.032 249.537L95.5021 247.359C96.0901 246.535 96.8545 245.652 97.7954 244.652C99.3243 242.945 101.088 241.356 103.029 240.061C108.027 236.589 115.319 233.47 125.315 233.352C126.256 233.352 127.079 233.411 128.02 233.411C130.666 233.411 133.018 233.47 135.077 233.941C146.367 236.059 154.893 242.239 161.185 252.95C167.36 263.485 170.006 275.785 171.535 285.202C172.828 292.853 173.064 301.092 172.24 310.508C170.359 332.225 168.536 354.06 166.713 375.776C164.419 401.319 162.832 426.92 161.538 448.636C161.303 453.462 161.597 458.229 162.067 462.29C162.302 465.527 163.655 468.823 165.654 471.53C168.477 475.356 172.652 477.827 177.062 477.827C177.944 477.827 178.767 477.71 179.649 477.533C182.942 476.768 184.413 476.18 186.177 475.473C213.108 464.88 236.218 453.58 256.858 440.927C270.089 432.805 283.202 423.035 298.138 410.146C311.545 398.611 323.07 387.135 333.42 375.011C347.827 358.12 359.47 339.405 367.996 319.513C373.406 306.683 376.287 295.677 377.052 284.613C377.111 282.847 377.405 281.141 377.757 279.434V278.434C381.344 255.893 376.287 234.47 362.939 214.872C356.471 205.456 348.003 197.04 337.007 189.448C315.485 174.264 290.611 162.375 263.268 154.077C239.335 146.721 213.579 141.247 184.765 137.422C153.835 133.302 123.081 131.242 93.2087 131.242C80.0956 131.242 67.1589 131.654 54.4574 132.419C27.996 134.008 5.88599 136.304 -16.3416 142.542C-25.5149 145.014 -34.3942 146.25 -42.6266 146.25C-49.1538 146.191 -52.976 145.543 -56.2102 144.955C-62.9138 143.66 -67.912 139.54 -71.793 132.066C-73.6747 128.476 -72.7927 122.002 -72.3811 118.824C-71.4402 111.526 -64.6778 98.0491 -58.3859 90.1628C-50.6827 80.6875 -41.5094 72.448 -31.2776 65.7388C-9.40283 51.4964 14.0596 41.7268 38.6394 36.7243C59.3381 32.5457 80.9189 30.1916 102.794 29.7796C108.498 29.7208 114.084 29.6031 119.729 29.6031M119.729 0.176559C113.966 0.176559 108.321 0.235412 102.558 0.353118H102.206C78.7432 0.823942 55.3983 3.35462 32.8179 7.8863C4.59232 13.6539 -22.3983 24.7771 -47.3897 41.0794C-60.2676 49.4954 -71.6754 59.7946 -81.3191 71.6241C-81.3779 71.6829 -81.4368 71.8007 -81.4956 71.8595C-88.4931 80.6875 -99.6069 99.4616 -101.665 115.116C-102.488 121.355 -104.076 134.008 -97.9605 145.72C-87.7875 165.259 -72.6751 171.792 -61.7965 173.852C-57.0334 174.735 -51.6235 175.5 -43.1559 175.617C-43.0383 175.617 -42.9207 175.617 -42.8031 175.617C-31.9833 175.617 -20.5755 174.028 -8.87361 170.85C11.0019 165.318 30.7009 163.258 56.1039 161.728C68.2174 160.963 80.6248 160.61 93.0911 160.61C121.669 160.61 151.189 162.611 180.767 166.554C208.169 170.203 232.278 175.264 254.506 182.15C279.144 189.624 301.137 200.159 320.013 213.46C328.128 219.051 334.125 224.936 338.653 231.469C347.827 244.828 351.12 258.718 348.767 273.902C348.709 274.432 348.65 274.902 348.591 275.432C348.121 277.963 347.885 280.376 347.709 282.789C347.121 290.44 345.063 298.208 340.888 307.978C333.479 325.163 323.423 341.347 311.016 355.825C301.725 366.713 291.258 377.13 278.909 387.782C265.326 399.494 253.447 408.381 241.393 415.796C226.398 424.977 209.933 433.393 191.41 441.397C192.586 422.094 194.056 400.141 195.997 378.248C197.82 356.355 199.643 334.579 201.524 312.921C202.583 301.268 202.289 290.557 200.525 280.258C198.76 269.37 195.35 252.95 186.529 237.943C176.062 220.11 160.244 208.752 140.781 204.985C136.253 204.043 131.96 203.926 128.314 203.926H128.138C127.256 203.926 126.315 203.867 125.374 203.867C110.967 203.984 97.619 208.045 86.6228 215.579C82.8006 218.109 79.2136 221.228 75.9794 224.877C74.6857 226.29 73.0981 228.114 71.4516 230.409C71.2751 230.645 71.0987 230.939 70.9223 231.175L69.4522 233.352C69.4522 233.352 69.217 233.705 69.0994 233.882C66.6885 237.707 64.748 241.886 63.1015 246.653C63.0427 246.888 62.9251 247.124 62.8663 247.359L62.6311 248.065L62.3959 248.713C62.1606 249.242 61.9842 249.772 61.749 250.361L61.3962 251.243C61.2198 251.714 61.0434 252.126 60.867 252.597C57.5152 262.308 54.9279 272.901 52.6345 286.084C49.7532 302.504 46.9894 319.219 44.2845 335.403L42.7556 345.173L42.638 345.997C40.8739 356.885 38.9922 368.184 37.6985 379.484C33.1119 418.798 30.1129 450.343 28.3488 478.71C28.1136 482.3 27.8196 485.89 27.5256 489.539V490.481L27.1139 494.895C25.7615 495.483 24.5266 495.954 23.5269 496.013C23.4093 496.013 23.2917 496.013 23.2329 496.013C18.8227 496.543 14.4713 497.014 10.1198 497.543C4.47472 498.191 -1.11159 498.897 -6.7567 499.426C-26.985 501.427 -47.0957 503.37 -67.324 505.371C-75.9093 506.195 -84.5533 507.019 -93.2562 507.842C-101.9 508.666 -110.486 509.49 -119.13 510.314L-142.71 512.551C-151.295 513.375 -156.705 514.434 -163.232 515.846C-171.523 517.73 -179.462 522.438 -185.46 529.206C-197.161 542.271 -203.63 556.808 -204.688 572.404C-205.453 583.763 -204.806 594.827 -202.807 606.304C-199.102 626.725 -189.341 643.499 -173.875 656.329C-166.643 662.39 -158.351 665.627 -149.178 665.922C-149.06 665.922 -148.943 665.922 -148.825 665.922H-144.944C-141.24 666.157 -137.947 666.216 -134.771 666.216C-133.419 666.216 -132.125 666.216 -130.773 666.216C-130.596 666.216 -130.479 666.216 -130.302 666.216L-111.485 665.51C-90.9041 664.745 -69.6173 663.979 -48.5658 662.92C-31.9245 662.096 -15.6948 661.037 1.47574 659.977L7.82649 659.565L21.1748 658.683C21.1748 659.036 21.1748 659.448 21.1748 659.742C21.1748 660.448 21.1748 661.096 21.1748 661.743C21.1748 663.391 21.1748 664.98 21.1748 666.569C22.1157 708.237 23.7034 738.958 26.4083 766.089C29.4073 797.046 34.0527 824.295 40.6387 849.366C46.4014 871.26 53.4578 888.562 62.8075 903.688C62.9251 903.864 63.0427 904.1 63.1603 904.276C67.8646 911.515 71.5692 916.4 75.5678 920.637C87.3284 933.232 102.735 940 119.964 940C121.728 940 123.492 939.941 125.256 939.765C139.722 938.764 158.774 936.174 178.238 925.346C188.411 919.696 198.996 909.75 203.935 901.216C213.226 885.208 213.814 870.789 213.167 858.783C212.638 848.837 211.168 838.891 210.109 831.593C207.405 813.289 201.936 796.458 196.173 779.39C193.351 771.092 191.351 762.911 189.822 753.613C188.352 744.726 187.235 733.191 186.177 717.418C185.765 710.944 185.412 703.705 185.118 695.348C184.942 687.697 184.648 680.753 184.236 674.338C183.001 653.739 184.236 632.317 185.765 612.071H185.883L187.176 611.541C233.278 593.356 274.499 573.11 313.25 549.746C357 523.438 393.87 496.307 425.8 466.704C455.142 439.75 478.076 411.618 495.952 380.779C518.65 341.642 529.823 302.74 529.999 261.955C530.117 221.64 520.355 186.917 500.186 155.666C484.132 130.712 463.551 108.937 439.148 90.9867C415.097 73.3308 388.989 58.6764 359.234 46.2585C304.077 23.1881 243.745 8.82795 174.592 2.35412C158.304 0.765089 140.369 0 119.788 0L119.729 0.176559Z" fill="url(#paint0_linear_12_36)"/>
<defs>
<linearGradient id="paint0_linear_12_36" x1="529.881" y1="605.84" x2="-205.041" y2="601.162" gradientUnits="userSpaceOnUse">
<stop stop-color="#9248FF"/>
<stop offset="1" stop-color="#C91ABE"/>
</linearGradient>
</defs>
</svg>
