<?xml version="1.0" encoding="UTF-8"?>
<svg id="Layer_1" data-name="Layer 1" xmlns="http://www.w3.org/2000/svg" xmlns:xlink="http://www.w3.org/1999/xlink" viewBox="0 0 351 85.2">
  <defs>
    <style>
      .cls-1 {
        clip-path: url(#clippath-2);
      }

      .cls-2 {
        fill: red;
      }

      .cls-2, .cls-3, .cls-4 {
        stroke-width: 0px;
      }

      .cls-3 {
        fill: none;
      }

      .cls-5 {
        clip-path: url(#clippath-1);
      }

      .cls-4 {
        fill: #fff;
      }

      .cls-6 {
        clip-path: url(#clippath);
      }

      .cls-7 {
        clip-path: url(#clippath-3);
      }
    </style>
    <clipPath id="clippath">
      <rect class="cls-3" x="16.25" y="30.1" width="27.2" height="33.4"/>
    </clipPath>
    <clipPath id="clippath-1">
      <rect class="cls-3" x="16.25" y="30.1" width="27.2" height="33.4"/>
    </clipPath>
    <clipPath id="clippath-2">
      <rect class="cls-3" x="16.25" y="30.1" width="27.2" height="33.4"/>
    </clipPath>
    <clipPath id="clippath-3">
      <rect class="cls-3" x="16.25" y="30.1" width="27.2" height="33.4"/>
    </clipPath>
  </defs>
  <path class="cls-2" d="m144.55,55.4H28.15v-17h116.4c4.2,0,7.6,3.4,7.6,7.6v1.8c.1,4.2-3.3,7.6-7.6,7.6Z"/>
  <g id="Artwork_25" data-name="Artwork 25">
    <g class="cls-6">
      <g>
        <g class="cls-5">
          <path class="cls-2" d="m35.15,40.4c.2,2.6-1.2,4.8-3.2,5s-3.7-1.8-3.9-4.4c-.2-2.6,1.2-4.8,3.2-5,1.9-.1,3.7,1.9,3.9,4.4"/>
        </g>
        <g class="cls-1">
          <path class="cls-4" d="m27.55,60.2c-.5,0-.9-.2-1.3-.6-.1-.1-.2-.3-.4-.5h0c-.3-.4-.5-1-.7-1.6-.2-.8-.3-1.6-.4-2.5-.1-.8-.1-1.7-.2-3v-.2h0v-.1h-.7c-.5,0-1,.1-1.5.1-.6,0-1.3.1-1.9.1h-1.1c-.3,0-.5-.1-.7-.3-.4-.4-.7-.9-.8-1.4-.1-.3-.1-.7-.1-1,0-.5.2-.9.6-1.3.2-.2.4-.3.6-.4.2,0,.4-.1.6-.1,0,0,2-.2,2.3-.2.6-.1,1.2-.1,1.8-.2.2,0,.3,0,.5-.1h.4q.1,0,.2-.1v-.5c.1-.9.1-1.8.3-3,0-.3.1-.7.1-1l.1-.3c.1-.5.2-1,.3-1.5.1-.4.1-.7.2-1l.1-.2h0c0-.1.1-.3.2-.4l.1-.1c0-.1.1-.1.1-.2l.3-.3c.3-.2.7-.3,1.1-.3h.5c.5.1,1,.4,1.3,1,.3.4.4.9.4,1.2s.1.6,0,1c-.1.7-.1,1.3-.2,2-.1.7-.1,1.4-.1,2.1.6-.3,1.2-.5,1.7-.8.4-.2.7-.5,1.1-.9.4-.3.7-.6,1-1,.4-.4.7-.9.9-1.5.1-.3.2-.5.2-.8v-.2h0c.1-.5,0-.9-.3-1.3-.1-.2-.3-.4-.6-.6-.6-.4-1.3-.7-2-1-.7-.2-1.4-.4-2.2-.5-.9-.1-1.8-.2-2.7-.2h-1.1c-.8,0-1.4.1-2,.3-.4.1-.7.1-1,.1s-.4,0-.6-.1c-.3-.1-.7-.2-1-.8-.2-.3-.1-.7-.1-.9.1-.5.4-1,.6-1.3.3-.4.6-.7,1-.9.7-.5,1.5-.8,2.4-1,.7-.1,1.4-.2,2.1-.2h.5c.6,0,1.2,0,1.6.1,2.1.2,3.9.6,5.5,1.3.9.4,1.7.8,2.4,1.3s1.3,1.2,1.8,1.9c.6.9.9,2,.9,3.2s-.3,2.4-1,3.5c-.5.9-1.2,1.8-2.1,2.6-1,.9-2.1,1.7-3.4,2.5-1.2.7-2.4,1.3-3.8,1.9h-.1c0,.6-.1,1.3,0,1.9v1.3c0,.5.1.8.1,1.1s.1.5.2.8c.2.5.3,1,.4,1.6,0,.2.1.5.1.8,0,.5-.1.9-.3,1.2-.1.2-.5.5-.7.7-.6.3-1.1.4-1.6.4.2.4.1.4.1.4"/>
        </g>
        <g class="cls-7">
          <path class="cls-2" d="m27.55,32.9c.6,0,1.1,0,1.6.1,2,.2,3.7.6,5.3,1.3.8.4,1.6.8,2.2,1.2.6.5,1.2,1.1,1.6,1.7.5.8.8,1.7.8,2.7,0,1.1-.3,2.1-.9,3.1-.5.8-1.1,1.6-2,2.4-.9.9-2,1.6-3.3,2.4-1.1.7-2.3,1.3-3.7,1.8h-.1c-.2,0-.4.2-.4.5v.1c0,.6-.1,1.3-.1,2.1v1.3c0,.4.1.8.1,1.2,0,.3.1.6.2.9.2.5.3.9.4,1.4,0,.2.1.5.1.7,0,.3,0,.5-.2.8l-.4.4c-.4.2-.8.3-1.2.3h-.1c-.3,0-.5-.1-.7-.3-.1-.1-.2-.2-.3-.4-.2-.4-.4-.8-.6-1.4-.2-.7-.3-1.5-.4-2.4-.1-.9-.1-1.8-.2-2.9v-.7c0-.2-.2-.4-.5-.4l-.8.1c-.6,0-1.1.1-1.7.1s-1.3.1-1.9.1h-1.1q-.1,0-.2-.1c-.3-.3-.5-.6-.6-1,0-.3-.1-.5,0-.8,0-.3.1-.5.4-.8q.1-.1.2-.1c.2,0,.3-.1.5-.1l.7-.1c.5,0,1-.1,1.6-.1.6-.1,1.2-.1,1.8-.2.2,0,.3,0,.5-.1h.4c.2,0,.4-.1.6-.2.2-.1.3-.3.3-.5v-.7c.1-.9.1-1.8.3-2.9,0-.3.1-.7.1-1v-.3c.1-.5.2-1,.3-1.5.1-.4.1-.6.2-.9v-.2c0-.1.1-.1.1-.2v-.1s0-.1.1-.1c0-.1.1-.1.2-.1.2-.1.4-.2.7-.2h.3c.3.1.6.3.8.6s.3.7.3,1v.8c-.1.7-.1,1.3-.2,2-.1.8-.1,1.5-.2,2.2v.4c0,.1,0,.2.1.3s.2.2.3.2h.1q.1,0,.2-.1c.8-.3,1.5-.7,2.1-1,.4-.2.8-.5,1.2-.9.4-.3.8-.7,1.1-1.1.4-.5.8-1.1,1-1.7.2-.4.3-.7.3-1.1v-.2h0c.1-.7,0-1.3-.5-1.9-.2-.3-.5-.5-.8-.8-.6-.5-1.4-.8-2.2-1.1-.7-.2-1.5-.4-2.4-.5s-1.9-.2-2.8-.2h-1.2c-.8,0-1.5.1-2.1.3-.3.1-.5.1-.8.1h-.4c-.2,0-.4-.2-.5-.4-.1-.1,0-.3,0-.4,0-.2.2-.6.4-.9.2-.3.5-.5.8-.7.7-.4,1.4-.7,2.1-.9.6-.1,1.3-.2,1.9-.2.8.3,1,.3,1.2.3m0-1.6h-.5c-.7,0-1.5.1-2.2.2-.9.2-1.8.6-2.7,1.1-.5.3-.8.7-1.2,1.1h0c-.2.3-.7,1-.8,1.7,0,.2-.1.8.2,1.3.3.7.9,1.1,1.6,1.2.2,0,.4.1.7.1h0c.4,0,.8-.1,1.2-.2h0c.5-.1,1.1-.2,1.8-.2h1.3c-.3.1-.5.2-.8.4-.2.1-.3.2-.4.4l-.2.2h0v.1h0c-.1.2-.2.3-.2.5h0v.1h0v.1c-.1.3-.2.7-.3,1.1-.1.5-.2,1-.3,1.5h0v.3h0c-.1.3-.1.7-.2,1-.1,1.2-.2,2.1-.3,2.9h-.4c-.6.1-1.2.1-1.8.2-.3,0-.5,0-.8.1-.3,0-.5,0-.8.1l-.7.1c-.3,0-.5.1-.7.1-.4.1-.8.3-1,.6-.5.5-.7,1.1-.8,1.7,0,.4,0,.8.1,1.2.1.8.5,1.4,1.1,1.9.3.3.7.4,1.2.5h1.1c.6,0,1.3,0,1.9-.1.5,0,.9-.1,1.4-.1,0,1,.1,1.8.1,2.6.1,1,.2,1.8.4,2.6.2.7.4,1.3.8,1.8h0c.2.3.3.4.5.6.5.5,1.1.8,1.9.8h.2c.5,0,1.2-.1,1.9-.5.4-.2.8-.6,1-1,.4-.6.4-1.2.4-1.7,0-.3-.1-.7-.1-.9-.1-.6-.3-1.2-.5-1.7-.1-.2-.1-.4-.2-.7-.1-.3-.1-.7-.1-1v-2.6c1.3-.5,2.4-1.1,3.5-1.8,1.4-.8,2.5-1.7,3.5-2.6.9-.9,1.7-1.8,2.2-2.8.7-1.3,1.1-2.6,1.1-3.9,0-1.4-.3-2.5-1-3.6-.5-.8-1.2-1.5-2-2.1s-1.6-1-2.6-1.4c-1.7-.7-3.6-1.2-5.8-1.4-.5.1-1.1.1-1.7.1m2.9,12.8c0-.2,0-.4.1-.7h0c.1-.7.1-1.3.2-2v-1.2c-.1-.4-.2-1-.5-1.5s-.7-.9-1.2-1.1h.4c.8.1,1.5.2,2.1.4.7.2,1.3.5,1.8.8h0c.2.1.3.2.4.4.2.3.2.5.2.8v.4c0,.1,0,.2-.1.5-.2.5-.5.9-.8,1.3-.3.3-.5.6-.9.9-.4.3-.7.6-1,.8-.5.1-.6.1-.7.2"/>
        </g>
      </g>
    </g>
  </g>
  <g>
    <path class="cls-4" d="m45.55,48.9c-.1-.3,0-.6.4-.7l.5-.1c.3-.1.5.1.7.3.3.4.7.7,1.4.7.8,0,1.3-.3,1.3-.8,0-.4-.3-.7-.9-.9l-1-.4c-.9-.3-2.1-1-2.1-2.2,0-1.4,1.2-2.3,2.8-2.3,1.2,0,2.1.5,2.5,1.4.2.3,0,.6-.3.7l-.4.1c-.3.1-.5,0-.7-.3s-.5-.5-1-.5c-.6,0-1,.3-1,.8,0,.3.1.6.8.8l1,.4c1.5.5,2.1,1.3,2.1,2.3,0,1.5-1.3,2.3-3,2.3-1.6.1-2.7-.6-3.1-1.6Z"/>
    <path class="cls-4" d="m51.95,49.8l2.6-6.8c.1-.3.3-.4.6-.4h.8c.3,0,.5.1.6.4l2.6,6.8c.1.4,0,.6-.4.6h-.7c-.3,0-.5-.1-.6-.4l-.4-1h-3l-.4,1c-.1.3-.3.4-.6.4h-.7c-.4.1-.5-.2-.4-.6Zm4.8-2.2l-1.1-3.1-1.2,3.1h2.3Z"/>
    <path class="cls-4" d="m60.35,49.9v-6.7c0-.3.2-.5.5-.5h.4c.3,0,.5.1.7.3l3.1,4.3v-4.1c0-.3.2-.5.5-.5h.7c.3,0,.5.2.5.5v6.7c0,.3-.2.5-.5.5h-.4c-.3,0-.5-.1-.6-.3l-3.2-4.4v4.1c0,.3-.2.5-.5.5h-.7c-.3.2-.5,0-.5-.4Z"/>
    <path class="cls-4" d="m74.35,43.2v.4c0,.3-.2.5-.5.5h-1.8v5.8c0,.3-.2.5-.5.5h-.7c-.3,0-.5-.2-.5-.5v-5.8h-1.8c-.3,0-.5-.2-.5-.5v-.4c0-.3.2-.5.5-.5h5.3c.3,0,.5.1.5.5Z"/>
    <path class="cls-4" d="m73.95,49.8l2.6-6.8c.1-.3.3-.4.6-.4h.8c.3,0,.5.1.6.4l2.6,6.8c.1.4,0,.6-.4.6h-.7c-.3,0-.5-.1-.6-.4l-.4-1h-3l-.4,1c-.1.3-.3.4-.6.4h-.6c-.4.1-.6-.2-.5-.6Zm4.8-2.2l-1.1-3.1-1.2,3.1h2.3Z"/>
    <path class="cls-4" d="m87.75,50.7v-.1c-2-.3-3.4-2-3.4-4,0-2.2,1.7-4,4.1-4s4.1,1.8,4.1,4c0,1.9-1.3,3.5-3.2,3.9.1.6.5.9,1.2.9.2,0,.4,0,.6-.1.3-.1.6-.1.7.3l.1.2c.1.3,0,.6-.4.8s-.8.2-1.1.2c-1.6,0-2.4-1-2.7-2.1Zm3-4.1c0-1.4-1-2.5-2.4-2.5s-2.4,1.1-2.4,2.5,1,2.5,2.4,2.5c1.5-.1,2.4-1.2,2.4-2.5Z"/>
    <path class="cls-4" d="m93.75,47.5v-4.3c0-.3.2-.5.5-.5h.7c.3,0,.5.2.5.5v4.3c0,1,.7,1.5,1.5,1.5s1.5-.5,1.5-1.5v-4.3c0-.3.2-.5.5-.5h.7c.3,0,.5.2.5.5v4.3c0,2-1.5,3.1-3.2,3.1s-3.2-1.1-3.2-3.1Z"/>
    <path class="cls-4" d="m101.85,49.9v-6.7c0-.3.2-.5.5-.5h.7c.3,0,.5.2.5.5v6.7c0,.3-.2.5-.5.5h-.7c-.3.1-.5-.1-.5-.5Z"/>
    <path class="cls-4" d="m111.15,43.2v.4c0,.3-.2.5-.5.5h-1.8v5.8c0,.3-.2.5-.5.5h-.7c-.3,0-.5-.2-.5-.5v-5.8h-1.8c-.3,0-.5-.2-.5-.5v-.4c0-.3.2-.5.5-.5h5.3c.3,0,.5.1.5.5Z"/>
    <path class="cls-4" d="m113.95,44.1v1.8h2.5c.3,0,.5.2.5.5v.3c0,.3-.2.5-.5.5h-2.5v1.7h3c.3,0,.5.2.5.5v.4c0,.3-.2.5-.5.5h-4.2c-.3,0-.5-.2-.5-.5v-6.7c0-.3.2-.5.5-.5h4.2c.3,0,.5.2.5.5v.4c0,.3-.2.5-.5.5h-3v.1Zm.3-2.4l.6-1.1c.1-.1.2-.2.3-.2h1c.2,0,.3.2.2.3l-.9,1.1c-.1.1-.2.2-.3.2h-.7c-.2,0-.3-.1-.2-.3Z"/>
    <path class="cls-4" d="m121.75,47.7h-1v2.3c0,.3-.2.5-.5.5h-.8c-.3,0-.5-.2-.5-.5v-6.7c0-.3.2-.5.5-.5h3c1.7,0,2.6,1.2,2.6,2.6,0,1.1-.6,2.1-1.7,2.3.1.8.5,1.6,1.2,1.6.2,0,.4,0,.5-.1.3-.1.5,0,.6.3l.1.2c.1.3.1.6-.2.7-.4.2-.8.3-1.3.3-2-.1-2.5-2.1-2.5-3Zm.4-1.3c.6,0,1-.5,1-1.1s-.4-1.1-1-1.1h-1.5v2.3h1.5v-.1Z"/>
    <path class="cls-4" d="m126.75,49.9v-6.7c0-.3.2-.5.5-.5h.7c.3,0,.5.2.5.5v6.7c0,.3-.2.5-.5.5h-.7c-.3.1-.5-.1-.5-.5Z"/>
    <path class="cls-4" d="m129.65,49.8l2.6-6.8c.1-.3.3-.4.6-.4h.8c.3,0,.5.1.6.4l2.6,6.8c.1.4,0,.6-.4.6h-.7c-.3,0-.5-.1-.6-.4l-.4-1h-3l-.4,1c-.1.3-.3.4-.6.4h-.7c-.4.1-.5-.2-.4-.6Zm4.8-2.2l-1.1-3.1-1.2,3.1h2.3Z"/>
  </g>
</svg>